<?xml version="1.0" standalone="no"?>
<!DOCTYPE svg PUBLIC "-//W3C//DTD SVG 20010904//EN"
 "http://www.w3.org/TR/2001/REC-SVG-20010904/DTD/svg10.dtd">
<svg version="1.0" xmlns="http://www.w3.org/2000/svg"
 width="231.000000pt" height="231.000000pt" viewBox="0 0 231.000000 231.000000"
 preserveAspectRatio="xMidYMid meet">
<metadata>
Created by potrace 1.11, written by Peter Selinger 2001-2013
</metadata>
<g transform="translate(0.000000,231.000000) scale(0.100000,-0.100000)"
fill="#000000" stroke="none">
<path d="M1718 2158 c-142 -188 -193 -253 -200 -256 -5 -2 -8 -9 -8 -17 0 -14
128 -185 139 -184 6 0 283 364 289 380 2 4 -27 48 -64 96 -37 48 -68 89 -69
91 -1 1 -40 -48 -87 -110z"/>
<path d="M1115 2098 c-48 -65 -55 -74 -77 -99 -10 -10 -15 -19 -10 -19 4 0 2
-4 -4 -8 -9 -7 -102 -122 -134 -168 -29 -41 -142 -189 -149 -194 -3 -3 -10
-12 -16 -21 -12 -20 -277 -372 -285 -379 -3 -3 -17 -21 -30 -40 -14 -19 -30
-42 -37 -50 -7 -8 -40 -53 -75 -100 -34 -47 -66 -89 -70 -95 -4 -5 -20 -26
-36 -45 -102 -127 -172 -232 -178 -269 -11 -66 3 -124 38 -159 l30 -32 323 0
323 0 4 -45 c2 -25 -1 -45 -6 -45 -4 0 -6 -11 -4 -25 3 -14 1 -25 -4 -25 -6 0
-8 -7 -5 -15 4 -8 2 -17 -4 -20 -5 -4 -7 -10 -4 -15 2 -4 -2 -29 -10 -56 -8
-26 -12 -51 -9 -56 3 -4 1 -8 -4 -8 -5 0 -9 -6 -9 -12 0 -7 -3 -23 -7 -35 -9
-29 -3 -29 43 -1 73 45 199 172 272 273 18 25 36 45 40 45 4 0 11 9 14 20 6
19 15 20 329 20 l322 0 0 152 -1 153 -632 3 c-348 1 -633 5 -633 7 0 3 5 11
10 18 11 12 178 234 270 357 24 33 48 60 53 60 4 0 6 4 3 9 -4 5 -2 11 2 13 5
1 42 48 82 103 40 55 76 102 79 105 3 3 19 24 35 48 16 23 33 42 37 42 5 0 9
7 9 15 0 8 4 15 8 15 5 0 26 25 47 55 21 31 51 70 66 88 16 17 29 35 29 38 0
4 13 22 30 40 16 19 30 37 30 41 0 4 6 13 13 20 7 7 26 31 42 53 17 22 36 44
42 48 21 13 15 38 -22 83 -19 23 -35 45 -35 48 0 3 -8 15 -17 25 -10 10 -29
35 -43 55 -14 19 -27 36 -30 36 -3 0 -23 -24 -45 -52z"/>
<path d="M2200 1867 c-26 -14 -40 -22 -285 -157 -82 -46 -167 -92 -188 -104
-34 -18 -37 -23 -31 -51 4 -16 11 -41 16 -55 5 -14 9 -26 9 -27 0 -2 6 -18 15
-38 8 -19 14 -38 14 -42 0 -19 12 -43 22 -43 6 0 72 34 147 75 75 42 140 75
145 75 5 -1 12 2 15 7 6 9 129 83 137 83 2 0 23 12 45 26 30 19 39 30 34 42
-4 9 -8 24 -10 32 -4 21 -34 118 -49 157 -11 31 -13 32 -36 20z"/>
<path d="M1801 1202 c-7 -2 -11 -50 -11 -132 l0 -129 229 0 229 1 1 129 c1 71
-2 130 -6 130 -21 3 -433 4 -442 1z"/>
</g>
</svg>
