<svg version="1" xmlns="http://www.w3.org/2000/svg" width="346.667" height="346.667" viewBox="0 0 260.000000 260.000000"><path d="M184.6 31.4L169.8 51l6.8 9c3.7 5 7 9 7.3 9 .3-.1 6.9-8.5 14.6-18.8 7.7-10.3 14.3-18.8 14.7-19 .4-.2-1.9-3.6-5-7.7-3.2-4-6.5-8.3-7.3-9.5-1.4-2.1-1.9-1.6-16.3 17.4zM131.9 27.8c-1.4 2-8.6 11.6-15.9 21.2-7.3 9.6-21 27.6-30.3 40-19.8 26-29.8 39.3-49.5 65.1-7.7 10.3-13.8 18.9-13.5 19.3.4.3.2.6-.4.6-1.6 0-1.3 12 .3 15.2.8 1.5 2.4 3.7 3.6 4.8 2.1 1.9 3.4 2 34.5 2H93v3.3c0 4-3.3 21.8-5.4 28.8-.9 2.9-1.4 5.5-1.1 5.7.9 1 13.6-8.6 17.4-13.2.9-1 3.2-3.5 5.2-5.5s6.2-7.1 9.4-11.3l5.7-7.8h63.4v-30.5l-62.9-.5-62.9-.5 11.4-15c6.2-8.3 19.2-25.4 28.8-38 9.5-12.7 24.2-32 32.5-43 15.7-20.6 18-24.1 16.7-24.7-.4-.2-4-4.7-8.1-10.1-4.1-5.3-7.7-9.7-8-9.7-.3.1-1.8 1.7-3.2 3.8zM238.5 52.4c-1.1.7-4.5 2.7-7.5 4.3-3 1.7-12.2 6.8-20.5 11.3-8.2 4.6-16.6 9.2-18.7 10.3-4 2.2-4.1 3.3-1.3 10.1.8 2 1.3 3.6 1 3.6-.3 0 .1 1.3 1 3 .8 1.6 1.5 3.3 1.4 3.7-.2 1.6 1.4 5.3 2.3 5.3.8 0 4.2-1.8 15.8-8.3 1.9-1.1 6.7-3.7 10.5-5.8 18.3-9.9 26-14.7 25.9-16-.5-4.2-5.8-20.7-7.2-22.1-.4-.4-1.7-.2-2.7.6zM198.2 131v13h45.4l.1-13v-13h-45.5v13z"/></svg>